<?xml version="1.0" encoding="utf-8"?>
<svg
    version="1.1"
    xmlns="http://www.w3.org/2000/svg"
    xmlns:xlink="http://www.w3.org/1999/xlink"
    viewBox="0 0 1600 1600"
    xml:space="preserve"
>
    <style type="text/css">
        .outer {
            fill: #002247;
        }
        .gear {
            fill: #FFFFFF;
            stroke: #FFFFFF;
            stroke-width: 40;
            stroke-linejoin: round;
        }
        .rw {
            fill: #FFFFFF;
            stroke: #FFFFFF;
            stroke-width: 10;
            stroke-linejoin: round;
        }
        .land {
            fill: #85C73F;
        }
        .water {
            fill: #0890B0;
        }
        .earth-outline {
            fill-opacity: 0;
            stroke: #F02247;
            stroke-width: 50;
        }
        .water-outline {
            fill-opacity: 0;
            stroke: #0890B0;
            stroke-width: 50;
        }
    </style>
    <rect id="Outer Rectangle"
        class="outer"
        width="100%"
        height="100%"
        rx="100"
    />
    <path id="Gear"
        class="gear"
        d="m797.075 159.75a650 650 0 0 1 85.15 5.85l34.45 104.65a552.5 552.5 0 0 1 135.85 52l93.6-60.45a650 650 0 0 1 68.9 50.05 650 650 0 0 1 61.1 58.5l-40.95 107.9a552.5 552.5 0 0 1 72.15 123.5l109.85 12.35a650 650 0 0 1 20.15 82.55 650 650 0 0 1 9.1 84.5l-97.5 50.7a552.5 552.5 0 0 1-24.7 143.65l73.45 81.25a650 650 0 0 1-37.7 78 650 650 0 0 1-47.45 65l-108.55-19.5a552.5 552.5 0 0 1-110.5 93.6l3.9 107.9a650 650 0 0 1-78 39 650 650 0 0 1-81.9 19.5l-68.25-83.2a552.5 552.5 0 0 1-143.65 0l-65 83.2a650 650 0 0 1-84.5-19.5 650 650 0 0 1-78-39l6.5-107.9a552.5 552.5 0 0 1-110.5-93.6l-110.5 19.5a650 650 0 0 1-45.5-65 650 650 0 0 1-39-78l78-81.25a552.5 552.5 0 0 1-26-143.65l-97.5-50.7a650 650 0 0 1 6.5-84.5 650 650 0 0 1 19.5-82.55l110.5-12.35a552.5 552.5 0 0 1 71.5-123.5l-39-107.9a650 650 0 0 1 58.5-58.5 650 650 0 0 1 71.5-50.05l91 60.45a552.5 552.5 0 0 1 143-52l26-104.65a650 650 0 0 1 84.5-5.85"
    />
    <circle id="Water"
        cx="50%"
        cy="50%"
        r="500"
        class="water"
    />
    <path id="Land"
        class="land"
        d="m700.5 1186.7c.4-.7 0-1.6-1-2.2-12.1-7.2-21.4-15.3-27.1-23.8-2.1-3.2-5.6-12.3-7-18.2-1.1-5.2-.6-20.3 1-27.2 1.5-6.6 6.1-16.5 10-21.4 1-1.4 10.3-10.8 20.6-21 23.5-23.2 26.7-27.8 39.6-58 .8-1.9 5.1-10.8 9.4-19.8s7.9-16.6 7.9-16.8c0-.3 2.5-5.8 5.6-12.2 8.3-17.3 14.1-32.9 16.4-44.1 2.3-11.3 2.4-13.2 1-18.3-2.6-9.2-10.2-13.5-31.1-17.8-17.8-3.7-22.3-5.1-32.4-10.2-9.9-4.9-16.9-10.1-26.2-19.4-11.1-11.1-16.6-14.8-41.8-27.7-38.8-19.9-52.4-23.7-83.9-23.8-28.4 0-39.9-3.7-45-14.4-1.6-3.3-3.9-13.6-5.1-22.7-.3-2.6-1.6-5.9-2.7-7.4-2.3-2.9-2-2.9-20.8-.8-14.2 1.6-25.5-11.4-26.7-30.8-.7-10 .9-16.3 6-23.7 3.5-5.2 4.1-5.8 8.2-8.7 6.7-4.5 10.8-5.8 20.8-6.2 11.2-.5 16.9.7 22.7 4.9 4.1 3 10.8 13.3 13.7 21.3 2.3 6.3 7 11.5 10.9 12.2l3.1.6-.5-15.5c-.6-21.6 1.1-28.8 11.5-46.7 1.1-1.9 9.6-13.7 18.9-26.2 9.3-12.4 21.6-29.3 27.4-37.5 21.3-30.2 23.9-31.6 56-31.1 23.7.4 24 .3 24-9.3 0-3.2-.5-7.1-1.1-8.6-.7-1.5-1.8-4.1-2.5-5.8-.7-1.6-2.2-5.3-3.3-8.2-4.5-11.6-15.1-30.5-21.4-38.4-10.5-13.1-26.1-15.6-30.8-5-.8 1.7-1.7 3.1-2.1 3.1-.5 0-.8.4-.8 1 0 2.2-5.2 12-9.3 17.6-7.6 10.3-17.8 16.4-28.9 17.2-8.5.6-14-1.3-19.6-6.8-9.2-9.1-12.2-21.9-8.2-35.1 1.9-6.3 2.9-8 8.3-13.3 3.4-3.4 8.5-7.2 11.2-8.6 15.5-7.7 26.6-17.4 31.8-27.9 5.9-12 3.7-25.6-5.2-31.4-9.1-6-16.9-6.1-37.6-.6-2.2.5-11.7 1.3-21.1 1.6l-17.2.6-5.5 4.1c-24.2 18.1-57.3 52.2-79.9 82.1-17.7 23.5-36.7 55.6-47.7 80.8-3.8 8.5-6.3 14.1-7.8 17.4-2.9 6.2.1 47.6 5.3 73.3 9.6 48 29 82.2 54.1 95.2 14.8 7.6 27.7 14.8 37.3 20.6 18.3 11.2 29.7 20 40.1 30.9 8.6 9 11.5 14.5 13 24.6 1 6.5.9 8.7-1.6 22.2-3.9 21.5-3.1 32.3 3.8 47.5 1.5 3.4 10.6 18.9 12.9 22 7.2 9.6 19.1 24.2 27.7 33.9 19.8 22.2 22.8 31.2 23.2 70.6.4 33.6 4.6 55.3 15 77 2.2 4.6 2.3 4.8 10.7 17.8 14.3 22.1 42.3 45.3 61.2 50.7 2.5.7 5.6 1.6 7 2 3.6 1.2 4.8 1.2 5.6-.2zm331.4-106.4c13.7-6 24-13.4 38.1-27.5 15.2-15 24.6-28.2 34.1-47.9 6.5-13.4 9.7-23.2 15.9-48.5 4.2-17.7 6.3-24.4 10.5-34.2 3.7-8.7 10.1-19.5 14.6-24.3 1.3-1.4 4.3-5 6.8-8s4.7-5.7 5-6c3.1-2.8 20.9-26.4 23.4-31 8.1-15 10.6-22 10.6-29.6 0-6.9-1.8-8.8-12.5-13.9-14-6.7-20.9-15.2-33.7-41.5-14.4-29.4-24.8-51.5-24.8-52.5 0-.3-1.3-3.1-2.9-6.4-1.5-3.2-2.6-6.3-2.2-6.8.3-.4 2.2-1.6 4.2-2.6 4.8-2.5 9.7-1.9 11.4 1.3.7 1.4 10.4 20.7 21.4 43 11 22.3 21.5 42.2 23.2 44.3 2.7 3.2 3.6 3.7 7.4 3.7 8.2 0 15.5-4.8 21.8-14.3 7.7-11.7 9.6-23.9 5.2-33.1-1-2.1-6.2-8.7-11.6-14.6-5.3-5.8-12-13.9-14.9-18-7.2-10.1-14.1-22-13.4-23.1.8-1.3 7.6-1 9.5.4 .9.7 3.5 3.5 5.9 6.2 11.2 13.2 21.2 22.4 32.2 29.9 3.7 2.5 7 4.6 7.4 4.6.3 0 3.5 2 7 4.5 4.5 3.1 6.4 4 6.4 2.9 0-1.4-.4-4.8-3.1-23.9-2.8-20.4-6.5-38.7-11.4-57.5-3.9-14.8-13.3-43.9-14.6-45.5-.5-.5-.9-1.5-.9-2.2s-1.3-4.2-3-7.8c-1.6-3.6-3-6.8-3-7.1 0-1.6-16.3-34.8-17.2-35.2-.5-.2-.8-.7-.8-1.2 0-1.5-14.1-25.4-21.8-37-8.5-12.7-20.7-29.3-25.5-34.8-21.1-23.8-19.1-22.3-30-22.8-12.1-.5-25.6-4-40.5-10.5-6.4-2.8-14.8-6.5-18.7-8.2-12.4-5.3-37.5-12-52-13.7-10.7-1.3-24.4 0-30.8 2.8-10.2 4.6-16.7 14.7-16.7 26.1 0 15.5 5.3 29.2 15.1 39.3l5.7 5.8h10.7c5.8 0 11.4-.4 12.4-1 2.9-1.5 4.4-6.2 3.3-10.1-.5-1.9-3.5-6.9-6.6-11.3-3.1-4.3-6.5-9.9-7.7-12.5-2.2-4.9-4.3-14.1-3.4-14.9 1.9-1.9 15.7 8.1 26.8 19.6 8.8 9.1 12.4 15.8 13.3 24.8 1.1 10.8-5.4 24.6-13.9 29.4-4 2.3-4.8 2.3-18.5.4-9.1-1.3-14.4 1.5-20.7 11-5.4 8.2-15.2 16.9-23.5 21.1-13.3 6.6-13.6 7.8-4.7 17.5 10.8 11.7 14.7 22.8 9.2 26.4-3.4 2.2-10.7 2-15.5-.4-4.5-2.3-13.5-2.9-16.8-1.1-3.8 2-4.5 4.8-3.8 14.4.8 11 3.5 18.2 8.3 22.9 4.7 4.4 9.9 6.2 16.9 5.6 7.4-.6 12.3-4.3 20.2-14.8 3.5-4.7 8.1-10.9 10.3-13.8 6.1-7.9 13.5-11 23.5-9.7 4.3.5 6.4 1.5 10.5 4.8 2.7 2.3 6.9 5.7 9.2 7.5 9.9 7.7 11.4 9.2 13.4 13.3 1.2 2.4 2.7 6.3 3.3 8.7.9 3.7 1.4 4.2 3.9 4.2 3.9 0 8.1-5.2 8.1-10.1 0-4.4-2.4-8.1-10.9-16.8-7.5-7.8-10.1-12.5-10.1-18.5 0-4.8 2.4-7.6 6.3-7.6 9 0 30.6 24.1 34.9 38.8 2.2 7.6 11.4 14.9 14 11.1 1.7-2.5.2-17.9-2.6-26.2-4.8-14.5-2.8-18.7 9-18.7h6.4v-10-9.9l2.9-1.6c1.8-.9 4.1-1.2 6-.9 5.7 1.2 19.4 16.7 20.8 23.7.6 2.7 3.5 3.8 4.8 1.7.9-1.5 5.8-1.2 9.3.5 1.6.9 4.6 3.3 6.5 5.4 3.3 3.6 3.5 4.2 2.7 7.8-2 8.9-11.2 9.7-26 2.4-4.6-2.2-9.4-4.1-10.8-4.1s-6.4 1.7-11.1 3.9c-4.7 2.1-9.4 4.1-10.3 4.4-1 .4-1.8 1.3-1.8 2.1 0 1.6 5.5 6.6 7.4 6.6 1.5 0 8.2 7.1 13 13.8 4.7 6.6 7.4 8.2 9.3 5.6.7-1 1.3-2.8 1.3-4 0-4.6 4.3-6.6 9.4-4.3 8.7 4 8.6 29.9-.1 35.6-5.2 3.4-9.9 3.2-24.2-1.2-3.9-1.2-8-1.6-14-1.3-7.3.2-9.5.8-14.6 3.4-18.7 9.7-28.6 8.2-45.4-7-18.9-17.1-29.7-22.6-43.8-22.6-6.6 0-9.8.7-20.8 4.5-8.2 2.9-17 5.1-24 6.1-13 1.9-17.8 4-25.1 10.6-15.9 14.6-39.5 54.9-46.4 79.4-2.8 9.9-3.1 12.3-3.2 26.4-.2 16.2 1.1 25.9 5 37 5.6 16.1 16.2 30.9 25.7 35.8 4.4 2.2 6.1 2.5 15 2.4 9.2-.1 23.1-1.5 41-4.2 12.1-1.8 25.6-2.7 29.7-2 11.7 2.2 24.8 20 28.3 38.4 1.9 9.8 1.9 28.3 0 44.6-3.1 27.5-3.5 30.8-4.5 36-5.4 27.3-10 63.7-10 79 0 21.2 6.4 35.2 18.4 40.6 5.3 2.4 19.8 1.3 27.6-2.2zm-94.5-534c6.9-4.7 9.9-9.6 11.7-19 1.8-10.1-1.7-18.5-9.4-22.5-4.6-2.4-7.6-6.5-9.1-12.9-1.1-4.5-1.4-5-4-5-5.5 0-10.6 4.4-10.7 9 0 1.4 1.5 5 3.4 8 7.1 11.2 6.9 10.5 6.7 22.7-.1 6.3-.2 11.7-.2 12.1-.7 4.8 2.4 10.2 6 10.2 1 0 3.5-1.2 5.6-2.6zm-20.5-25.9c0-5.8-4.7-10.5-10.5-10.5-5.8 0-10.5 4.7-10.5 10.5s4.7 10.5 10.5 10.5c5.8 0 10.5-4.7 10.5-10.5zm-170.3-30.3c3.6-2.5 6.5-8.3 9.3-18.2 3.4-12 9-28 11.8-34 4.2-8.7 12.2-16.1 21.7-20 4.4-1.7 9.3-4.4 10.8-5.9 4.2-3.9 11.7-20.3 13.8-30.1 3.1-14.4-10.2-26.4-34.1-31-7.2-1.4-28.5-1.4-34.7.1-16 3.7-24.5 9.1-42.2 26.9-10.7 10.8-13.1 14.2-13.1 18.7 0 3.9 2.7 6.2 10.7 9.1 3.2 1.2 6.9 3.1 8.1 4.2 6 5.6 9.2 18.3 9.2 37 .1 22 5.8 40.1 14.1 44.4 4.3 2.1 10.7 1.6 14.6-1.2zm-74.2-15.3c2.6-1.3 6.3-6.8 8.1-12 .9-2.4 1.5-8 1.5-13 0-11.2-1.8-14.9-11.8-24.6-10.4-10.1-13.3-11.3-26.9-11.3-17.2 0-21.2 3.3-18.5 15.6 1.3 5.7 2.4 7.1 13.7 17.4 2.7 2.5 6 6.8 7.4 9.5 4.1 8.2 8.9 15.2 11.8 17.1 4.9 3.2 9.8 3.7 14.7 1.3zm-19.3-78c17.4-3.4 19.8-4.4 23.5-10.1 3.5-5.2 4.4-13.9 1.8-16.8-1-1.1-3.3-2.3-5.2-2.6-4.8-.9-15.5 1.9-21.7 5.7-8.7 5.4-10.9 6.5-17.6 8.8-6 2.1-11 5.8-11 8.2 0 .5 1.1 2.1 2.5 3.3 4.3 4 17.1 5.6 27.7 3.5z"
    />
    <circle id="Water outline"
        class="water-outline"
        cx="50%"
        cy="50%"
        r="460"
    />
    <circle id="Earth outline"
        class="earth-outline"
        cx="50%"
        cy="50%"
        r="480"
    />
    <g id="Rw">
        <path
            id="R"
            class="rw"
            d="m559.9 918.8v-426.3h80.3v426.3h-80.3zm31.9-171.4v-77.4h148.2c12.5 0 22.5-4.6 30-13.8 7.5-9.2 11.4-21.3 11.6-36.3 0-15-3.8-27.1-11.3-36.3-7.5-9.2-17.6-13.8-30.3-13.8h-148.2v-77.3h154.7c23.6 0 44.3 5.3 62 15.8 17.7 10.5 31.4 25.4 41.2 44.5 9.8 19.1 14.6 41.5 14.6 67.1 0 25.6-4.9 48-14.8 67.1-9.9 19.1-23.6 34-41.2 44.5-17.6 10.5-38.2 15.8-61.8 15.8h-154.7zm193.1 171.4-103.4-184.6 85.8-13.5 114.8 198h-97.2z"
        />
        <path
            id="w"
            class="rw"
            d="m821.4 981.1-93.8-166.1h77.1l53.9 102.6 64.2-102.6h47.5l64.2 102.6 53.9-102.6h77.1l-93.8 166.1h-59.8l-65.3-108.3-65.3 108.3h-59.9z"
        />
    </g>
</svg>